PathFileType	4	(X/Y/Z)	T1_P2_Vision_NoMovement_4_0-734.trc
DataRate	CameraRate	NumFrames	NumMarkers	Units	OrigDataRate	OrigDataStartFrame	OrigNumFrames
60	60	5	27	m	60	550	734
Frame#	Time	RHip			RKnee			RAnkle			RBigToe			RSmallToe			RHeel			LHip			LKnee			LAnkle			LBigToe			LSmallToe			LHeel			Neck			Head			Nose			RShoulder			RElbow			RWrist			RThumb			RIndex			RPinky			LShoulder			LElbow			LWrist			LThumb			LIndex			LPinky		
		X1	Y1	Z1	X2	Y2	Z2	X3	Y3	Z3	X4	Y4	Z4	X5	Y5	Z5	X6	Y6	Z6	X7	Y7	Z7	X8	Y8	Z8	X9	Y9	Z9	X10	Y10	Z10	X11	Y11	Z11	X12	Y12	Z12	X13	Y13	Z13	X14	Y14	Z14	X15	Y15	Z15	X16	Y16	Z16	X17	Y17	Z17	X18	Y18	Z18	X19	Y19	Z19	X20	Y20	Z20	X21	Y21	Z21	X22	Y22	Z22	X23	Y23	Z23	X24	Y24	Z24	X25	Y25	Z25	X26	Y26	Z26	X27	Y27	Z27
551	9.183333333333334	465.6347315574753	3763.1880535844393	651.9239959794435	848.8744932756541	3790.256676042274	661.4069571747056	1209.8338523542768	3745.47639898533	694.6821953156013	1297.5513331254813	3658.3279198748496	661.9782786956296	1289.2185311241185	3686.8771885032575	604.9625815705908	1282.3822006050632	3807.843473943172	759.9130020443184	463.561877273177	3651.284570446263	856.3047007424327	849.7726888757287	3664.684027152109	856.2373717351154	1224.135179644629	3694.631850786161	858.7029168730605	1296.9472937248188	3545.510187445705	795.9890507611726	1270.1107014613347	3533.1653049981524	836.2085039050345	1258.049134860751	3725.478498084088	863.3624535814813	-125.22497069474112	3664.1249390336543	736.8768992582785	-389.6708980807152	3588.750031782274	674.0327211003547	-246.57810371294545	3525.6742773281717	652.1073306949039	-46.674313224925534	3777.4491221037115	601.0418045847108	199.95768368121938	3800.2973398090553	542.3892028992526	350.1020191358487	3565.2868860928356	618.4299590261821	407.09837942043146	3529.49084553144	680.9609652430461	429.24907165220736	3535.5988523814467	706.2047179807842	446.790452395788	3477.1041889797516	644.23840923232	-44.562811573094905	3608.963764448487	885.1326448344226	210.54419863933987	3506.065431909794	889.3368077383597	358.8410858903209	3492.390246072148	731.5659567349458	408.9580374677029	3509.8876932947514	626.0297998606607	434.8874505769653	3526.5739651671392	627.2815042811006	453.64971403828935	3460.2671310339892	652.0086202463209
552	9.2	465.64742758601756	3763.4023585678196	651.9352992480502	856.9527500940718	3809.345270536978	659.8067168425471	1209.5328224504563	3747.248939857887	689.0959872298713	1289.6046539636498	3641.516568289567	648.1572560719948	1289.1703997226423	3686.329707866683	604.4850654606508	1276.5535297108606	3802.9512435880733	758.5476311894562	460.17761496135813	3636.2424250835898	842.3917221864501	844.7730864707773	3663.0790551264895	854.7257162193159	1224.1481881541506	3694.6286769872	858.7242353571421	1297.3021550784317	3545.8798343689255	796.1432857899592	1270.2427711377134	3533.2378614124004	836.2770716727125	1258.3435431079386	3725.286533220349	863.3218993081872	-130.096807041712	3669.262392789634	739.5347477911092	-389.7211318945878	3590.795462670903	669.5257599205318	-246.55458440277295	3525.8473230573245	652.2099845759524	-46.68838690750891	3777.3801274545012	601.0063948593228	199.84616223668397	3800.289619790671	542.3002736288715	350.1814531576862	3565.2451119898183	618.3562067979772	403.4028090511363	3512.827796574477	666.9072520450676	429.22532206088204	3535.1836363465804	705.9045261032807	446.88853757373244	3476.5941467825987	643.7459586579446	-44.5597295151814	3608.9808006613252	885.1162659610243	208.58211864136513	3491.0581401738996	874.8679935548035	360.7355611522233	3479.8151097155337	719.7285954076322	408.640726656168	3510.152544764729	626.2464477264054	435.0095447085369	3526.663321711396	627.3607458282331	450.2162833627028	3459.1485530088817	651.0095209818921
553	9.216666666666667	465.69986793414586	3763.368943968718	651.92345521789	849.2106958875619	3792.053593650388	656.609138292644	1221.677586491935	3753.4986338719546	691.8146463088183	1289.8602173581453	3641.55927312974	648.5907012761434	1289.36248430909	3686.0574865702556	604.2762252286121	1280.5619190885277	3793.461502215544	745.7035175306505	463.46952077791286	3651.941381201041	856.465814488207	850.0175887091759	3665.040367834175	856.3643089062919	1224.022239742891	3694.386115588264	858.5385181723041	1304.1924209602244	3560.3407836938545	809.6212737834245	1270.0379305685426	3531.834751444712	841.316260696917	1257.967703743258	3725.2149111571644	863.128546505206	-124.90113213657196	3664.391982045974	736.6576418218805	-389.7090948721162	3588.620006463642	673.9483787151646	-242.0813617373179	3522.3434359955736	650.2949173392577	-46.73684272715094	3777.400453812874	601.0637700506444	199.69123920850257	3800.3802312236576	542.3145633894309	350.2649193348766	3565.2941442537635	618.2940892407249	415.5178102694193	3536.3375133369814	667.5106720609613	432.13542281354614	3555.472525343155	711.4748068114643	446.8531382210011	3477.1324129104855	644.0879117411298	-44.9029084905866	3587.8827031859805	878.2346086543837	208.43019732458586	3490.875031013087	874.8596916450753	358.8669740913706	3492.564372453599	731.625501428298	411.35312584408604	3531.1528394477023	632.3499206261874	438.1943565334623	3548.1925990520926	633.4138972620766	453.15030054535725	3479.829510036765	657.2808459282229
554	9.233333333333333	465.714271507448	3763.276993820889	651.7938957201894	857.8685500378195	3788.554478965663	655.2488993338055	1224.686623235914	3747.28891453124	688.4959987887319	1289.6350484094655	3640.9238820346727	648.0885968404846	1289.2586280306327	3685.381197567533	603.8449947395521	1280.7056396484465	3793.127992899359	745.4980840904678	463.35508323202794	3658.195658277602	849.6824031334559	849.973533206413	3664.8673710944304	856.1767381117163	1229.1786979410965	3696.3811996547674	860.2864546476272	1297.0043918546019	3545.7869929430467	796.2609582333745	1263.142677572969	3519.4154939195782	822.9203801608762	1258.350534912553	3725.075452279909	863.0135931648771	-130.03275630731926	3669.181575141178	739.2552798518407	-389.742666414694	3588.74843882503	673.9803085037763	-246.48642927515888	3526.0169588198014	652.394983661271	-46.69062109768463	3777.277552374956	600.863392408615	199.70413884144753	3800.276021376207	542.2282842864985	350.21002458944935	3565.343140098149	618.2627151155459	410.5122216616149	3534.340564932657	666.3771564303976	432.18374589252784	3555.3839088594605	711.4369422566696	446.66460144829966	3476.9695016681776	644.0761607736165	-44.58244066379479	3608.915273229634	885.1177136641775	208.61730959278017	3490.8034184479648	874.7008193094701	356.26731218766076	3478.5696680837214	718.7912067328564	411.40580810718717	3531.198602593523	632.1963532683297	441.6218502009674	3544.0830009690853	630.9285749106036	453.2251500268498	3479.585294495086	657.0911785538044
555	9.25	465.592153577846	3763.208546796491	651.7909280697278	849.0034990617596	3791.9557826730384	656.6029344473984	1213.8996760633997	3735.739286803196	677.4717116128535	1281.6733980174113	3619.6936673562186	641.9622214069058	1288.964951130362	3685.638096304544	604.1114658319846	1280.477245679086	3793.3989598155636	745.616401873625	460.0251855141571	3636.3426168497253	842.4147344267267	849.8937462690811	3664.8467198082612	856.2113693844481	1228.9688006983097	3696.421855409243	860.2734143253413	1297.0568553274381	3545.9976744601986	796.5174801203171	1263.0637498179078	3517.7793920795425	827.7380674394853	1258.1286172490938	3725.2125329718137	863.1056629611136	-130.06655313960255	3669.472804375355	739.4630345722131	-389.75331679001465	3588.573175928983	673.9357340290994	-246.4873562930363	3525.9624385782986	652.3826087837597	-46.696890745966364	3777.2684548894294	600.8483444547799	199.69585199904532	3800.282966445798	542.2135599407911	350.2000773782808	3565.206981980004	618.1731308535531	415.59172257653046	3535.764717837858	667.2814242729534	432.8986148414066	3530.92098986999	703.6145994953166	446.65328668328084	3476.6454084793795	643.9476696794882	-44.58417286060244	3608.8644768574895	885.078611022196	208.6285150946736	3490.6757511573933	874.6099512132156	360.7801377291505	3479.945036862268	719.7131043505618	411.59628532705676	3530.6964085705263	631.9503454308659	441.5943054055848	3543.5654521902356	630.7618134898748	450.29261862470634	3459.1424039318354	650.9736364887319
